<svg t="1765618234741" class="icon" viewBox="0 0 1024 1024" version="1.1" xmlns="http://www.w3.org/2000/svg" p-id="4989" width="32" height="32"><path d="M500.608 171.648c-9.728 1.536-24.064 6.272-31.616 10.752-9.6 5.632-20.608 15.616-26.752 24.192-4.864 6.912-25.344 48.256-61.44 124.416l-6.656 14.08-10.112 1.536c-80.384 11.648-125.824 18.432-130.816 19.456-12.032 2.688-28.672 12.032-39.424 22.272-15.616 14.592-23.04 28.8-27.52 52.608-1.792 9.856-2.176 14.08-1.152 15.872 0.64 1.408 1.28 4.096 1.28 5.888 0 12.8 10.624 36.224 22.144 48.768 4.352 4.736 28.16 27.904 52.736 51.456 24.704 23.552 44.928 43.392 45.184 44.288 0.128 0.768-6.656 35.712-15.104 77.568-14.72 72.064-15.488 76.8-14.72 86.912 1.536 22.912 9.472 40.96 24.32 55.936 21.248 21.376 50.944 29.184 80.512 21.248 12.928-3.584 15.616-4.992 87.808-46.208 33.408-19.072 61.568-34.688 62.464-34.688 1.024 0 31.616 17.024 68.096 37.888 40.704 23.168 69.76 39.04 75.264 40.832 19.968 6.784 37.888 6.912 56.96 0.512 30.848-10.368 52.48-39.424 55.424-74.752 0.768-8.064-0.768-16.896-14.72-86.272-8.576-42.624-15.872-77.824-16.128-78.208-0.256-0.512 13.44-14.08 30.464-30.08 67.584-63.616 76.928-73.856 84.352-92.032 3.712-8.96 7.68-26.24 7.808-33.408 0.128-5.888-3.712-23.552-6.784-31.616-3.712-9.984-13.568-24.704-21.376-31.872-16-14.976-31.232-21.632-58.368-25.472-22.528-3.328-110.976-16.512-118.016-17.792-4.224-0.64-5.504-1.664-7.424-5.248-1.152-2.432-15.36-32-31.488-65.664-16.128-33.536-31.488-63.872-33.92-67.328-7.168-9.728-19.84-20.864-29.824-26.112-15.744-8.192-35.712-12.032-51.456-9.728z m27.136 57.216c3.456 1.792 7.68 5.248 9.472 7.552 1.664 2.176 18.304 35.712 36.864 74.24 18.688 38.528 35.2 71.936 36.864 73.984 1.664 2.176 5.888 5.376 9.472 7.296 6.912 3.84 1.024 2.816 109.824 18.816 52.864 7.808 55.808 8.576 65.024 16.768 8.704 7.552 12.544 23.168 8.576 35.328-3.072 9.344-1.152 7.424-91.136 93.056-24.448 23.296-27.136 27.008-29.44 40.96-1.28 7.424-0.896 10.24 6.4 46.336 4.352 21.12 11.648 57.088 16.384 80 9.088 45.056 9.472 50.048 4.48 60.032-5.632 10.752-19.712 16.896-32.768 14.208-6.656-1.408-11.392-3.84-75.52-40.32-17.536-9.984-42.112-23.808-54.4-30.848l-22.4-12.672h-26.88L467.2 731.392c-122.88 69.632-115.84 65.792-123.136 66.816-9.216 1.28-19.712-2.432-26.24-9.216-5.632-5.76-8.064-11.904-8.064-20.352 0-2.816 7.296-41.088 16.128-84.992 15.104-75.008 16-80.256 14.848-87.168-2.56-14.464-4.48-16.768-41.6-52.096-80.384-76.288-80.256-76.032-80.256-92.544 0.128-13.952 6.528-24.32 19.2-30.72 6.4-3.2 12.544-4.48 51.968-10.112 114.304-16.512 112.384-16.128 120.96-24.704 3.072-3.072 10.752-17.664 25.984-49.664 46.976-98.304 47.232-98.816 53.376-104.064 10.624-9.216 24.832-10.624 37.376-3.712z" p-id="4990" fill="#ffffff"></path><path d="M416.64 543.872c-9.216 2.304-15.744 7.68-19.2 15.744-4.992 12.16-0.64 22.528 16.384 39.04 24.576 23.68 53.632 36.096 89.6 38.272 14.72 0.896 35.968-1.664 50.56-6.016 10.88-3.328 28.928-12.416 37.632-18.816 9.216-6.784 24.576-23.296 28.032-29.952 9.088-17.792-3.328-38.144-23.296-38.144-10.368 0-15.744 3.328-25.728 15.616-15.744 19.328-52.224 29.056-81.664 21.632-17.792-4.352-28.416-10.496-40.32-22.656-12.672-13.056-21.632-17.152-32-14.72z" p-id="4991" fill="#ffffff"></path></svg>